<?xml version="1.0" encoding="UTF-8"?>
<svg id="Layer_1" xmlns="http://www.w3.org/2000/svg" version="1.1" viewBox="0 0 455 462.7">
  <!-- Generator: Adobe Illustrator 29.7.1, SVG Export Plug-In . SVG Version: 2.1.1 Build 8)  -->
  <defs>
    <style>
      .st0 {
        fill: #010101;
      }

      .st1 {
        fill: #231f20;
      }
    </style>
  </defs>
  <path class="st1" d="M433.3,94.4C386.9,6.2,257-16.8,143.2,43.1,29.4,102.9-25.2,222.9,21.2,311.1c41.9,79.7,151.9,106.2,256.7,66.4l-.3-.7c-86.3,28.5-178.5-2.2-215-71.6-41.6-79.2,2.3-184.3,98.3-234.7,95.9-50.4,207.4-27.1,249.1,52.1,32.9,62.6,13.3,167.4-62.8,189.1-33,9.4-87.8,2.5-97.5-37.1-5.8-23.8-2.5-51.2,2.8-75.1.2-1,1-1.8,2.1-1.9l107.8-16.4c1.1-.2,2-1.1,2.1-2.3l1.4-26c0-1.5-1.1-2.7-2.6-2.6l-261.3,13.7c-1.1,0-2.1.9-2.3,2l-8.9,49.8c-.3,1.6,1.1,3.1,2.7,2.9l90.4-12.3c2.4-.4,2.9,1.5,2.8,2.8-3,23-17.4,161.3,109.2,143.7,104.9-14.6,183.6-148.2,143.1-246.5-1.7-4.1-3.6-8.1-5.6-12Z"/>
  <g>
    <path class="st0" d="M15.4,432.3h13.4c.9,0,1.6.7,1.6,1.7s-.7,1.6-1.6,1.6h-5.1v18.4c0,.9-.7,1.7-1.6,1.7s-1.7-.7-1.7-1.7v-18.4h-5c-.9,0-1.7-.7-1.7-1.6s.7-1.7,1.7-1.7Z"/>
    <path class="st0" d="M61.3,445.5l4.7,7.6c.5.8.2,1.8-.6,2.3-.3.2-.6.2-.9.2-.6,0-1.1-.3-1.4-.8l-5.5-9.1h-3.4v8.2c0,.9-.8,1.6-1.7,1.6s-1.7-.7-1.7-1.6v-19.9c0-.9.8-1.7,1.7-1.7h7.1c3.4,0,6.6,2.9,6.6,6.6,0,3-2,5.4-4.9,6.5ZM62.9,439.1c0-1.9-1.6-3.3-3.5-3.3h-5.3v6.7h5.3c1.9,0,3.4-1.5,3.5-3.4Z"/>
    <path class="st0" d="M86.8,443.9c0-6.3,5.1-11.5,11.5-11.5s11.5,5.3,11.5,11.5-5.1,11.7-11.5,11.7-11.5-5.3-11.5-11.7ZM90,443.9c0,4.7,3.7,8.5,8.3,8.5s8.3-3.8,8.3-8.5-3.8-8.3-8.3-8.3-8.3,3.7-8.3,8.3Z"/>
    <path class="st0" d="M146.4,433.9v3.6c0,4-2.9,7.4-6.7,8.2v8.3c0,.9-.7,1.7-1.6,1.7s-1.7-.7-1.7-1.7v-8.3c-3.8-.8-6.7-4.2-6.7-8.2v-3.6c0-.9.7-1.6,1.6-1.6s1.7.7,1.7,1.6v3.6c0,2.8,2.3,5.1,5.1,5.1s5.1-2.3,5.1-5.1v-3.6c0-.9.7-1.6,1.6-1.6s1.7.7,1.7,1.6Z"/>
    <path class="st0" d="M168.8,455.7c-.9,0-1.7-.8-1.7-1.7v-20c0-.9.8-1.7,1.7-1.7h4.8c1.8,0,3.4.4,5,1,1.5.7,2.8,1.6,3.9,2.9,1.1,1.2,1.9,2.6,2.4,4.2.5,1.6.7,3.3.5,5-.3,2.8-1.7,5.4-3.8,7.4-2.1,1.9-4.9,3-7.8,3h-4.9ZM173.7,452.4c4.2,0,7.8-3.2,8.3-7.4.3-2.5-.4-4.8-2-6.6-1.6-1.8-3.9-2.8-6.4-2.8h-3.2v16.7h3.3Z"/>
    <path class="st0" d="M222,454c0,.9-.8,1.7-1.7,1.7h-11.6c-.9,0-1.7-.7-1.7-1.7v-19.9c0-.9.7-1.7,1.7-1.7h11.6c.9,0,1.7.7,1.7,1.7s-.8,1.7-1.7,1.7h-9.9v6.7h7.6c.9,0,1.7.7,1.7,1.7s-.8,1.7-1.7,1.7h-7.6v6.6h9.9c.9,0,1.7.7,1.7,1.7Z"/>
    <path class="st0" d="M255.4,449c0,3.7-3,6.7-6.7,6.7s-6.7-3-6.7-6.7.7-1.7,1.7-1.7,1.7.8,1.7,1.7c0,1.9,1.5,3.4,3.3,3.4s3.3-1.5,3.3-3.4-1.5-3.3-3.3-3.3c-3.7,0-6.7-3-6.7-6.7s3-6.7,6.7-6.7,6.7,3,6.7,6.7-.7,1.7-1.7,1.7-1.7-.7-1.7-1.7c0-1.8-1.5-3.3-3.3-3.3s-3.3,1.5-3.3,3.3,1.5,3.3,3.3,3.3c3.7,0,6.7,3,6.7,6.7Z"/>
    <path class="st0" d="M277.1,454v-20.1c0-.9.7-1.6,1.7-1.6s1.6.7,1.6,1.6v20.1c0,.9-.7,1.7-1.6,1.7s-1.7-.7-1.7-1.7Z"/>
    <path class="st0" d="M325.2,444c0,1.5-.3,3.1-.9,4.5-.6,1.4-1.4,2.6-2.5,3.7s-2.3,1.9-3.7,2.5c-1.4.6-3,.9-4.5.9s-3.1-.3-4.5-.9c-1.4-.6-2.6-1.4-3.7-2.5s-1.9-2.3-2.5-3.7c-.6-1.4-.9-3-.9-4.5s.3-3.1.9-4.5c.6-1.4,1.4-2.6,2.5-3.7s2.3-1.9,3.7-2.5c1.4-.6,2.9-.9,4.5-.9,3.8-.1,7.1,1.5,9.6,4.8.6.8.2,1.8-.6,2.3-.8.5-1.7.1-2.3-.6-1.9-2.2-4.1-3.2-6.7-3.2-4.5,0-8.2,3.7-8.2,8.3s3.7,8.2,8.2,8.2,7.3-2.8,8.1-6.6h-7.2c-.9,0-1.7-.8-1.7-1.7s.7-1.7,1.7-1.7h9c.9,0,1.7.7,1.7,1.7Z"/>
    <path class="st0" d="M363.1,455.4c-.3.2-.6.3-.9.3-.5,0-1.1-.3-1.4-.8l-10.9-15.6v14.8c0,.9-.7,1.6-1.6,1.6s-1.7-.7-1.7-1.6v-20c0-.6.2-1.3.8-1.6.8-.5,1.8-.3,2.3.5l10.8,16.1v-15.2c0-.9.8-1.7,1.7-1.7s1.6.7,1.6,1.7v20c0,.6-.2,1.3-.7,1.6Z"/>
    <path class="st0" d="M401.2,454c0,.9-.8,1.7-1.7,1.7h-11.6c-.9,0-1.7-.7-1.7-1.7v-19.9c0-.9.7-1.7,1.7-1.7h11.6c.9,0,1.7.7,1.7,1.7s-.8,1.7-1.7,1.7h-9.9v6.7h7.6c.9,0,1.7.7,1.7,1.7s-.8,1.7-1.7,1.7h-7.6v6.6h9.9c.9,0,1.7.7,1.7,1.7Z"/>
    <path class="st0" d="M424,455.7c-.9,0-1.7-.8-1.7-1.7v-20c0-.9.8-1.7,1.7-1.7h4.8c1.8,0,3.4.4,5,1,1.5.7,2.8,1.6,3.9,2.9,1.1,1.2,1.9,2.6,2.4,4.2.5,1.6.7,3.3.5,5-.3,2.8-1.7,5.4-3.8,7.4-2.1,1.9-4.9,3-7.8,3h-4.9ZM428.9,452.4c4.2,0,7.8-3.2,8.3-7.4.3-2.5-.4-4.8-2-6.6-1.6-1.8-3.9-2.8-6.4-2.8h-3.2v16.7h3.3Z"/>
  </g>
</svg>